<?xml version="1.0" encoding="UTF-8" standalone="no"?>
<!-- Created with Inkscape (http://www.inkscape.org/) -->

<svg
   width="611.45337mm"
   height="299.51694mm"
   viewBox="0 0 611.45337 299.51694"
   version="1.1"
   id="svg658"
   xmlns="http://www.w3.org/2000/svg"
   xmlns:svg="http://www.w3.org/2000/svg">
  <defs
     id="defs655" />
  <g
     id="layer1"
     transform="translate(-699.44246,14.238015)">
    <circle
       id="path2856"
       style="fill:#000000;stroke:none;stroke-width:0.264583"
       cx="971.90216"
       cy="39.876389"
       r="0.39687499" />
    <circle
       id="path2858"
       style="fill:#000000;stroke:none;stroke-width:0.264583"
       cx="971.90216"
       cy="211.02893"
       r="0.39687499" />
    <text
       xml:space="preserve"
       style="font-style:normal;font-variant:normal;font-weight:800;font-stretch:normal;font-size:66.6077px;line-height:1.25;font-family:raleway;-inkscape-font-specification:'raleway Ultra-Bold';fill:#e8630a;fill-opacity:1;stroke-width:1.6652"
       x="949.27625"
       y="130.96599"
       id="text2405"><tspan
         id="tspan2403"
         style="font-style:normal;font-variant:normal;font-weight:800;font-stretch:normal;font-family:raleway;-inkscape-font-specification:'raleway Ultra-Bold';fill:#e8630a;fill-opacity:1;stroke-width:1.6652"
         x="949.27625"
         y="130.96599">WINDSON </tspan></text>
    <text
       xml:space="preserve"
       style="font-size:45.5499px;line-height:1.25;font-family:ral;-inkscape-font-specification:ral;fill:#e8630a;fill-opacity:1;stroke-width:1.13875"
       x="956.29004"
       y="183.6507"
       id="text2459"><tspan
         id="tspan2457"
         style="font-style:normal;font-variant:normal;font-weight:bold;font-stretch:normal;font-family:raleway;-inkscape-font-specification:'raleway Bold';fill:#e8630a;fill-opacity:1;stroke-width:1.13875"
         x="956.29004"
         y="183.6507">POLYPACK LLP</tspan></text>
    <path
       id="path1236"
       style="color:#000000;fill:#e8630a;fill-opacity:1;stroke-width:7.05637"
       d="M 731.14502,68.445002 V 134.7051 c 0,3.09333 2.30955,4.62413 5.15853,3.41912 l 8.35656,-3.53452 c 2.84903,-1.20502 5.1585,-4.68952 5.1585,-7.78285 V 68.445002 c 0,-3.093332 -2.50756,-5.600987 -5.60098,-5.600987 h -7.47162 c -3.09334,0 -5.60099,2.507655 -5.60099,5.600987 z m 74.68346,0 v 44.807888 33.47465 c 0,3.09333 -1.77308,7.37417 -3.96046,9.56148 l -20.08401,20.08394 c -2.18737,2.18732 -5.73354,2.18732 -7.92092,0 l -19.83608,-19.83598 c -2.18737,-2.18732 -6.27012,-2.98399 -9.11934,-1.77937 l -8.24278,3.48497 c -2.84917,1.2046 -3.38569,3.95429 -1.19837,6.14161 l 38.39657,38.39655 c 2.18738,2.18731 5.73392,2.18767 7.92166,7.8e-4 l 29.42852,-29.41684 c 2.18775,-2.18689 5.7343,-2.18646 7.92147,8.8e-4 l 29.41209,29.41491 c 2.18719,2.18742 5.73317,2.18725 7.92017,-3.8e-4 l 5.14917,-5.1505 c 2.18701,-2.18763 2.18626,-5.73367 -0.002,-7.92033 l -9.88593,-9.8799 c -2.18812,-2.18666 -3.89979,-4.02133 -3.82324,-4.09785 l -19.44227,-19.44258 c -2.18737,-2.18731 -3.96046,-6.46815 -3.96046,-9.56148 V 68.445002 c 0,-3.093332 -2.50757,-5.600987 -5.60098,-5.600987 h -7.47173 c -3.09341,0 -5.60098,2.507655 -5.60098,5.600987 z m 74.68355,0 v 44.807888 33.47465 c 0,3.09333 -1.77327,7.37415 -3.96045,9.56146 l -7.01878,7.01866 c -2.18719,2.18731 -2.18681,5.73314 8.8e-4,7.91986 l 5.2808,5.27782 c 2.18793,2.18672 5.73466,2.18604 7.92166,-0.002 l 12.47806,-12.48028 c 2.187,-2.18752 3.96009,-6.46852 3.96009,-9.56186 V 124.45486 68.445002 c 0,-3.093332 -2.50756,-5.600987 -5.60099,-5.600987 h -7.46051 c -3.09343,0 -5.60099,2.507655 -5.60099,5.600987 z" />
    <path
       style="fill:none;stroke:#714222;stroke-width:1.32292;stroke-linecap:butt;stroke-linejoin:miter;stroke-dasharray:none;stroke-opacity:0.788235"
       d="m 933.95665,38.61791 0.62924,193.80509 v 0"
       id="path2864" />
    <text
       xml:space="preserve"
       style="font-size:45.5499px;line-height:1.25;font-family:ral;-inkscape-font-specification:ral;fill:#e8630a;fill-opacity:1;stroke-width:1.13875"
       x="956.29004"
       y="183.6507"
       id="text3487"><tspan
         id="tspan3485"
         style="font-style:normal;font-variant:normal;font-weight:800;font-stretch:normal;font-family:raleway;-inkscape-font-specification:'raleway Ultra-Bold';fill:#e8630a;fill-opacity:1;stroke-width:1.13875"
         x="956.29004"
         y="183.6507">POLYPACK LLP</tspan></text>
  </g>
</svg>
